<svg id="Layer_1" data-name="Layer 1" xmlns="http://www.w3.org/2000/svg" viewBox="0 0 359.64 165.25"><defs><style>.cls-1{fill:#231f20;}.cls-1,.cls-3,.cls-4{stroke:#231f20;}.cls-1,.cls-3,.cls-4,.cls-5{stroke-miterlimit:10;}.cls-2,.cls-3,.cls-4,.cls-5{fill:#fff;}.cls-3{stroke-linecap:round;}.cls-5{stroke:#fff;}</style></defs><title>anteater</title><path class="cls-1" d="M561,327c-4.63-17.53-5.93-84.79-61.33-124-7.1-5-93-63.6-188-21.33C219.92,222.5,203.36,320.2,202.33,327" transform="translate(-201.84 -165.93)"/><path class="cls-2" d="M208.33,328c4.59-10.57,14.61-40.22,38-56.33,9.58-6.59,26.8-12.82,46.67-13.34,35.41-.91,54.3,31.73,56,34,9.64,12.85,12.81,28,14,35.34" transform="translate(-201.84 -165.93)"/><circle class="cls-3" cx="55.83" cy="75.78" r="4"/><path class="cls-1" d="M285.41,196.89a64.5,64.5,0,0,1-2.66-9.67,4.62,4.62,0,0,1,.33-3.33c.74-1.24,0,0,3.28-.27,1-.08,1,.46,1.05,1.93a58.21,58.21,0,0,0,1.34,9" transform="translate(-201.84 -165.93)"/><path class="cls-4" d="M305.2,204.22a66.16,66.16,0,0,0,2.67-9.67,4.63,4.63,0,0,0-.34-3.33c-.74-1.23,0,0-3.28-.27-1-.08-.95.47-1.05,1.94a58,58,0,0,1-1.33,9" transform="translate(-201.84 -165.93)"/><path class="cls-5" d="M445,331c-.76-6.51,15.68-4.06,14.1-23.69-.69-8.62,6.53,5,14.15,23.69" transform="translate(-201.84 -165.93)"/><path class="cls-5" d="M398,328.5c0-8.9.26-19.14,2-19.33s4,8.35,6,17.33" transform="translate(-201.84 -165.93)"/></svg>