<svg xmlns="http://www.w3.org/2000/svg" xmlns:xlink="http://www.w3.org/1999/xlink" version="1.1" x="0px" y="0px" viewBox="0 0 100 125" enable-background="new 0 0 100 100" xml:space="preserve"><path d="M5.667,80h14.666c1.104,0,2-0.896,2-2V13.667c0-1.104-0.896-2-2-2H5.667c-1.104,0-2,0.896-2,2V78  C3.667,79.104,4.563,80,5.667,80z M7.667,15.667h10.666V76H7.667V15.667z"/><path d="M30.333,80H45c1.104,0,2-0.896,2-2V41c0-1.104-0.896-2-2-2H30.333c-1.104,0-2,0.896-2,2v37  C28.333,79.104,29.229,80,30.333,80z M32.333,43H43v33H32.333V43z"/><path d="M94.333,28.667H79.667c-1.104,0-2,0.896-2,2V78c0,1.104,0.896,2,2,2h14.666c1.104,0,2-0.896,2-2V30.667  C96.333,29.562,95.438,28.667,94.333,28.667z M92.333,76H81.667V32.667h10.666V76z"/><path d="M54.999,80h14.668c1.104,0,2-0.896,2-2V20.333c0-1.104-0.896-2-2-2H54.999c-1.104,0-2,0.896-2,2V78  C52.999,79.104,53.895,80,54.999,80z M56.999,22.333h10.668V76H56.999V22.333z"/><path d="M94.333,84.334H5.667c-1.104,0-2,0.896-2,2s0.896,2,2,2h88.666c1.104,0,2-0.896,2-2S95.438,84.334,94.333,84.334z"/></svg>
