<svg xmlns="http://www.w3.org/2000/svg" xmlns:xlink="http://www.w3.org/1999/xlink" version="1.1" x="0px" y="0px" viewBox="0 0 100 125" enable-background="new 0 0 100 100" xml:space="preserve"><path d="M96.25,85.75h-82v-82c0-1.104-0.896-2-2-2s-2,0.896-2,2v82h-6.5c-1.104,0-2,0.896-2,2s0.896,2,2,2h6.5v6.5  c0,1.104,0.896,2,2,2s2-0.896,2-2v-6.5h11V92c0,1.104,0.896,2,2,2s2-0.896,2-2v-2.25h15V92c0,1.104,0.896,2,2,2s2-0.896,2-2v-2.25  h15V92c0,1.104,0.896,2,2,2s2-0.896,2-2v-2.25h15V92c0,1.104,0.896,2,2,2s2-0.896,2-2v-2.25h10c1.104,0,2-0.896,2-2  S97.354,85.75,96.25,85.75z"/><path d="M34.929,63.833c0.072,0.002,0.143,0.004,0.213,0.004c5.581-0.001,6.343-8.05,7.224-17.352  c0.704-7.438,1.58-16.695,5.194-18.909c1.166-0.713,2.705-0.677,4.705,0.116c8.546,3.386,8.838,5.837,9.242,9.23  c0.387,3.243,0.868,7.279,7.336,11.874c3.744,2.661,7.749,2.691,11.276,0.078c7.703-5.704,12.097-23.721,10.779-27.674  c-0.349-1.049-1.488-1.617-2.531-1.271c-1.048,0.35-1.616,1.476-1.268,2.524c0.648,2.365-3.021,18.775-9.539,23.334  c-2.078,1.455-4.112,1.375-6.401-0.252c-5.022-3.568-5.342-6.249-5.68-9.087c-0.573-4.808-1.751-8.517-11.742-12.476  c-3.205-1.269-5.984-1.206-8.267,0.192c-5.318,3.258-6.217,12.756-7.086,21.942c-0.487,5.14-1.299,13.728-3.287,13.728  c-0.008,0-0.017,0-0.025-0.001c-0.763-0.027-1.413-0.362-2.044-1.057c-4-4.395-4.086-18.931-3.781-24.162  c0.064-1.103-0.777-2.049-1.88-2.113c-1.105-0.052-2.048,0.777-2.113,1.879c-0.123,2.096-1.032,20.661,4.815,27.087  C31.435,62.972,33.07,63.767,34.929,63.833z"/></svg>
