<svg xmlns="http://www.w3.org/2000/svg" xmlns:xlink="http://www.w3.org/1999/xlink" version="1.1" x="0px" y="0px" viewBox="0 0 100 125" enable-background="new 0 0 100 100" xml:space="preserve"><path d="M96.25,85.75h-82v-82c0-1.104-0.896-2-2-2s-2,0.896-2,2v82h-6.5c-1.104,0-2,0.896-2,2s0.896,2,2,2h6.5v6.5  c0,1.104,0.896,2,2,2s2-0.896,2-2v-6.5h11V92c0,1.104,0.896,2,2,2s2-0.896,2-2v-2.25h15V92c0,1.104,0.896,2,2,2s2-0.896,2-2v-2.25  h15V92c0,1.104,0.896,2,2,2s2-0.896,2-2v-2.25h15V92c0,1.104,0.896,2,2,2s2-0.896,2-2v-2.25h10c1.104,0,2-0.896,2-2  S97.354,85.75,96.25,85.75z"/><path d="M29.5,71c3.86,0,7-3.141,7-7s-3.14-7-7-7s-7,3.141-7,7S25.64,71,29.5,71z M29.5,61c1.654,0,3,1.346,3,3s-1.346,3-3,3  s-3-1.346-3-3S27.846,61,29.5,61z"/><path d="M36.75,49.75c6.341,0,11.5-5.159,11.5-11.5s-5.159-11.5-11.5-11.5s-11.5,5.159-11.5,11.5S30.409,49.75,36.75,49.75z   M36.75,30.75c4.136,0,7.5,3.364,7.5,7.5s-3.364,7.5-7.5,7.5s-7.5-3.365-7.5-7.5S32.614,30.75,36.75,30.75z"/><path d="M68.5,49.75c4.273,0,7.75-3.477,7.75-7.75s-3.477-7.75-7.75-7.75s-7.75,3.477-7.75,7.75S64.227,49.75,68.5,49.75z   M68.5,38.25c2.067,0,3.75,1.682,3.75,3.75s-1.683,3.75-3.75,3.75s-3.75-1.683-3.75-3.75S66.433,38.25,68.5,38.25z"/><path d="M74.25,21.5c4.136,0,7.5-3.364,7.5-7.5s-3.364-7.5-7.5-7.5s-7.5,3.364-7.5,7.5S70.114,21.5,74.25,21.5z M74.25,10.5  c1.93,0,3.5,1.57,3.5,3.5s-1.57,3.5-3.5,3.5s-3.5-1.57-3.5-3.5S72.32,10.5,74.25,10.5z"/></svg>
