<?xml version="1.0" encoding="utf-8"?>
<svg data-name="Layer 1" viewBox="0 0 100 125" x="0px" y="0px" xmlns="http://www.w3.org/2000/svg">
  <title>Box plot</title>
  <path d="M89.5,90.5H9.5V10a1,1,0,0,1,2,0V88.5h78a1,1,0,0,1,0,2Z"/>
  <path d="M30.7,35H26.2V26h2a1,1,0,0,0,0-2h-6a1,1,0,1,0,0,2h2v9H19.7a1,1,0,0,0-1,1V60a1,1,0,0,0,1,1h4.5V71h-2a1,1,0,1,0,0,2h6a1,1,0,0,0,0-2h-2V61h4.5a1,1,0,0,0,1-1V36A1,1,0,0,0,30.7,35Zm-1,24h-9V37h9Z"/>
  <path d="M47.6,51.5H43.1V44h2a1,1,0,1,0,0-2h-6a1,1,0,0,0,0,2h2v7.5H36.6a1,1,0,0,0-1,1v14a1,1,0,0,0,1,1h4.5V74h-2a1,1,0,0,0,0,2h6a1,1,0,1,0,0-2h-2V67.5h4.5a1,1,0,0,0,1-1v-14A1,1,0,0,0,47.6,51.5Zm-1,14h-9v-12h9Z"/>
  <path d="M64.6,22.5H60.1V15h2a1,1,0,1,0,0-2h-6a1,1,0,0,0,0,2h2v7.5H53.6a1,1,0,0,0-1,1v34a1,1,0,0,0,1,1h4.5V68h-2a1,1,0,0,0,0,2h6a1,1,0,1,0,0-2h-2V58.5h4.5a1,1,0,0,0,1-1v-34A1,1,0,0,0,64.6,22.5Zm-1,34h-9v-32h9Z"/>
  <path d="M82.6,39.5H78.1V33h2a1,1,0,0,0,0-2h-6a1,1,0,0,0,0,2h2v6.5H71.6a1,1,0,0,0-1,1v30a1,1,0,0,0,1,1h4.5V78h-2a1,1,0,0,0,0,2h6a1,1,0,0,0,0-2h-2V71.5h4.5a1,1,0,0,0,1-1v-30A1,1,0,0,0,82.6,39.5Zm-1,30h-9v-28h9Z"/>
  <rect x="19.7" y="43" width="11" height="2"/>
  <rect x="37.1" y="59" width="10" height="2"/>
  <rect x="54.1" y="34" width="10" height="2"/>
  <rect x="72.1" y="53" width="10" height="2"/>
</svg>