<?xml version="1.0" encoding="utf-8"?>
<!-- Generator: Adobe Illustrator 22.1.0, SVG Export Plug-In . SVG Version: 6.00 Build 0)  -->
<svg version="1.1" id="Layer_1" xmlns="http://www.w3.org/2000/svg" xmlns:xlink="http://www.w3.org/1999/xlink" x="0px" y="0px"
	 viewBox="0 0 359.6 165.2" style="enable-background:new 0 0 359.6 165.2;" xml:space="preserve">
<style type="text/css">
	.st0{fill:#231F20;stroke:#231F20;stroke-miterlimit:10;}
	.st1{fill:#FFFFFF;stroke:#231F20;stroke-linecap:round;stroke-miterlimit:10;}
	.st2{fill:#FFFFFF;stroke:#231F20;stroke-miterlimit:10;}
</style>
<title>anteater</title>
<path class="st0" d="M297.8,37.1c-7.1-5-93-63.6-188-21.3C18.1,56.6,1.5,154.3,0.5,161.1h6.4c4.8-11.3,14.9-39.7,37.6-55.3
	c9.6-6.6,26.8-12.8,46.7-13.3c35.4-0.9,54.3,31.7,56,34c9.4,12.5,12.6,27.1,13.9,34.7h35.1c0.1-8.2,0.4-16.7,2-16.8
	c1.7-0.2,3.9,8,5.9,16.8h41.7c4.4-2.8,12.7-5.5,11.5-19.7c-0.6-8,5.5,3.1,12.5,19.7h89.4C354.5,143.5,353.2,76.3,297.8,37.1z"/>
<circle class="st1" cx="55.8" cy="75.8" r="4"/>
<path class="st0" d="M83.6,31c-1.1-3.1-2-6.4-2.7-9.7c-0.3-1.1-0.2-2.3,0.3-3.3c0.7-1.2,0,0,3.3-0.3c1-0.1,1,0.5,1,1.9
	c0.2,3,0.7,6,1.3,9"/>
<path class="st2" d="M103.4,38.3c1.1-3.2,2-6.4,2.7-9.7c0.3-1.1,0.2-2.3-0.3-3.3c-0.7-1.2,0,0-3.3-0.3c-1-0.1-1,0.5-1,1.9
	c-0.2,3-0.7,6-1.3,9"/>
</svg>
